<?xml version="1.0" encoding="utf-8"?>
<!-- Generator: Adobe Illustrator 22.1.0, SVG Export Plug-In . SVG Version: 6.00 Build 0)  -->
<svg version="1.1" id="Layer_1" xmlns="http://www.w3.org/2000/svg" xmlns:xlink="http://www.w3.org/1999/xlink" x="0px" y="0px"
	 viewBox="0 0 256 256" style="enable-background:new 0 0 256 256;" xml:space="preserve">
<style type="text/css">
	.st0{fill:#231F20;}
	.st1{fill:#FFEFE4;}
	.st2{fill:#69EBFC;}
	.st3{fill:#5FD4E3;}
	.st4{fill:#A1F1FC;}
	.st5{fill:#D476E2;}
	.st6{fill:#B665C2;}
	.st7{fill:#EA82FA;}
	.st8{fill:#FFF7F2;}
	.st9{fill:#FF8354;}
	.st10{fill:#FFA172;}
	.st11{fill:#6770E6;}
	.st12{fill:#5861C7;}
	.st13{fill:#E0734A;}
	.st14{fill:#EDD4C2;}
	.st15{fill:#CC6944;}
	.st16{fill:#858EFF;}
	.st17{fill:#C76642;}
	.st18{fill:#FFFFFF;}
	.st19{fill:#FFDEC7;}
	.st20{fill:#4E56B0;}
	.st21{fill:#94529E;}
	.st22{fill:#41B6C5;}
	.st23{fill:#9847A4;}
	.st24{fill:#C2552C;}
	.st25{fill:#CFB6A4;}
</style>
<g>
	<path class="st1" d="M240,256H16c-8.837,0-16-7.163-16-16V66h256v174C256,248.837,248.837,256,240,256z"/>
	<path class="st14" d="M240,250H16c-8.837,0-16-7.164-16-16v6c0,8.836,7.163,16,16,16h224c8.837,0,16-7.164,16-16v-6
		C256,242.836,248.837,250,240,250z"/>
	<path class="st5" d="M256,66H0V36c0-8.837,7.163-16,16-16h224c8.837,0,16,7.163,16,16V66z"/>
	<path class="st7" d="M240,20H16C7.163,20,0,27.164,0,36v6c0-8.836,7.163-16,16-16h224c8.837,0,16,7.164,16,16v-6
		C256,27.164,248.837,20,240,20z"/>
	<circle class="st6" cx="40" cy="41" r="14"/>
	<circle class="st6" cx="216" cy="41" r="14"/>
	<path class="st2" d="M40,50L40,50c-5.523,0-10-4.477-10-10V10c0-5.523,4.477-10,10-10h0c5.523,0,10,4.477,10,10v30
		C50,45.523,45.523,50,40,50z"/>
	<path class="st4" d="M40,0c-5.523,0-10,4.477-10,10v6c0-5.523,4.477-10,10-10s10,4.477,10,10v-6C50,4.477,45.523,0,40,0z"/>
	<path class="st2" d="M216,50L216,50c-5.523,0-10-4.477-10-10V10c0-5.523,4.477-10,10-10h0c5.523,0,10,4.477,10,10v30
		C226,45.523,221.523,50,216,50z"/>
	<path class="st4" d="M216,0c-5.523,0-10,4.477-10,10v6c0-5.523,4.477-10,10-10s10,4.477,10,10v-6C226,4.477,221.523,0,216,0z"/>
	<circle class="st9" cx="128" cy="161" r="78"/>
	<circle class="st1" cx="128" cy="161" r="12"/>
	<g>
		<path class="st1" d="M128,166.403c-2.762,0-5-2.238-5-5v-60c0-2.762,2.238-5,5-5s5,2.238,5,5v60
			C133,164.165,130.762,166.403,128,166.403z"/>
	</g>
	<g>
		<path class="st1" d="M127.998,166.403c-2.725,0-4.955-2.188-4.997-4.922c-0.044-2.761,2.159-5.034,4.921-5.077l45.15-0.707
			c0.026-0.001,0.053-0.001,0.08-0.001c2.725,0,4.955,2.188,4.997,4.922c0.044,2.761-2.159,5.034-4.921,5.077l-45.15,0.707
			C128.052,166.403,128.025,166.403,127.998,166.403z"/>
	</g>
</g>
</svg>
